<svg xmlns="http://www.w3.org/2000/svg" width="36" height="36" viewBox="0 0 36 36">
  <g id="Group_8661" data-name="Group 8661" transform="translate(19280 3504)">
    <rect id="Rectangle_4235" data-name="Rectangle 4235" width="36" height="36" transform="translate(-19280 -3504)" fill="rgba(255,255,255,0)"/>
    <path id="Path_10856" data-name="Path 10856" d="M321.534,417.2h-7.27a2.608,2.608,0,0,0-2.6,2.6v1.034H303.3a.788.788,0,0,0-.784.784v18.585a2.608,2.608,0,0,0,2.6,2.6h25.573a2.609,2.609,0,0,0,2.6-2.6v-18.57a.76.76,0,0,0-.72-.8h-8.433V419.8A2.61,2.61,0,0,0,321.534,417.2Zm-8.3,2.6a1.038,1.038,0,0,1,1.035-1.034h7.27a1.036,1.036,0,0,1,1.034,1.034v1.034h-9.339Zm18.489,7.423v12.98a1.038,1.038,0,0,1-1.034,1.034h-25.57a1.036,1.036,0,0,1-1.033-1.034V427.222l.243-.039,1.449,4.35a2.593,2.593,0,0,0,2.464,1.779h5.243v1.034a.785.785,0,0,0,.785.784h7.27a.785.785,0,0,0,.784-.784v-1.034h5.241a2.593,2.593,0,0,0,2.464-1.775l1.451-4.349Zm-16.67,6.335v-2.068h5.7v2.068ZM331.414,422.4l-.056.164-2.821,8.467a1.03,1.03,0,0,1-.98.708h-5.239V430.71a.784.784,0,0,0-.784-.784h-7.27a.785.785,0,0,0-.785.784v1.034h-5.237a1.029,1.029,0,0,1-.979-.708l-2.879-8.631Z" transform="translate(-19579.514 -3916.202)" fill="#00b1ff"/>
  </g>
</svg>
