<svg xmlns="http://www.w3.org/2000/svg" width="20.774" height="17.996" viewBox="0 0 20.774 17.996">
  <g id="_639394" data-name="639394" transform="translate(0.2 0.2)">
    <g id="Group_2642" data-name="Group 2642" transform="translate(0.463 9.724)">
      <g id="Group_2641" data-name="Group 2641">
        <path id="Path_2806" data-name="Path 2806" d="M30.622,279.273a.437.437,0,0,0-.463.463v6.02a.437.437,0,0,1-.463.463H13.026a.437.437,0,0,1-.463-.463v-6.02a.463.463,0,1,0-.926,0v6.02a1.364,1.364,0,0,0,1.389,1.389H29.7a1.364,1.364,0,0,0,1.389-1.389v-6.02A.437.437,0,0,0,30.622,279.273Z" transform="translate(-11.637 -279.273)" fill="#00b1ff" stroke="#00b1ff" stroke-width="0.4"/>
      </g>
    </g>
    <g id="Group_2644" data-name="Group 2644" transform="translate(0 3.241)">
      <g id="Group_2643" data-name="Group 2643">
        <path id="Path_2807" data-name="Path 2807" d="M18.985,116.364H1.389A1.364,1.364,0,0,0,0,117.753v2.963a1.39,1.39,0,0,0,1.065,1.343l7.27,1.621v1.482a.437.437,0,0,0,.463.463h2.778a.437.437,0,0,0,.463-.463V123.68l7.27-1.621a1.39,1.39,0,0,0,1.065-1.343v-2.963A1.364,1.364,0,0,0,18.985,116.364ZM11.113,124.7H9.261v-1.852h1.852Zm8.335-3.982a.451.451,0,0,1-.37.463l-7.038,1.574v-.37a.437.437,0,0,0-.463-.463H8.8a.437.437,0,0,0-.463.463v.37L1.3,121.18a.451.451,0,0,1-.37-.463v-2.963a.437.437,0,0,1,.463-.463h17.6a.437.437,0,0,1,.463.463Z" transform="translate(0 -116.364)" fill="#00b1ff" stroke="#00b1ff" stroke-width="0.4"/>
      </g>
    </g>
    <g id="Group_2646" data-name="Group 2646" transform="translate(6.483)">
      <g id="Group_2645" data-name="Group 2645">
        <path id="Path_2808" data-name="Path 2808" d="M168.929,34.909H164.3a1.364,1.364,0,0,0-1.389,1.389v.463a.463.463,0,1,0,.926,0V36.3a.437.437,0,0,1,.463-.463h4.63a.437.437,0,0,1,.463.463v.463a.463.463,0,0,0,.926,0V36.3A1.364,1.364,0,0,0,168.929,34.909Z" transform="translate(-162.909 -34.909)" fill="#00b1ff" stroke="#00b1ff" stroke-width="0.4"/>
      </g>
    </g>
  </g>
</svg>
