<svg xmlns="http://www.w3.org/2000/svg" width="23.276" height="20.149" viewBox="0 0 23.276 20.149">
  <g id="Group_8669" data-name="Group 8669" transform="translate(-301.836 -422.176)">
    <path id="Path_10857" data-name="Path 10857" d="M324.4,433.321a.677.677,0,0,0-.466-.23.617.617,0,0,0-.075,0,.673.673,0,0,0-.489.173.688.688,0,0,0-.232.478c0,.026,0,.052,0,.07v6.768a.3.3,0,0,1-.074.211.313.313,0,0,1-.247.1H304.106a.3.3,0,0,1-.21-.073.317.317,0,0,1-.1-.248v-6.747a.721.721,0,0,0-.688-.751.739.739,0,0,0-.517.189.713.713,0,0,0-.235.5v6.807a1.733,1.733,0,0,0,1.693,1.762h18.763a1.7,1.7,0,0,0,1.233-.484,1.722,1.722,0,0,0,.53-1.218v-6.8A.682.682,0,0,0,324.4,433.321Z" fill="#00b1ff"/>
    <path id="Path_10858" data-name="Path 10858" d="M324.628,426.345a1.72,1.72,0,0,0-1.209-.531q-.039,0-.081,0H303.6a1.747,1.747,0,0,0-1.763,1.7V430.9a1.758,1.758,0,0,0,1.356,1.7l8,1.784v1.49a.691.691,0,0,0,.65.732c.026,0,.053,0,.069,0h3.106l.043,0a.689.689,0,0,0,.688-.641.422.422,0,0,0,0-.079v-1.5l8.005-1.785a1.757,1.757,0,0,0,1.354-1.7v-3.322A1.717,1.717,0,0,0,324.628,426.345Zm-10.32,7.144v1.679h-1.679v-1.679Zm9.354-5.916v3.335a.309.309,0,0,1-.26.317l-7.656,1.712v-.154a.691.691,0,0,0-.649-.733h-3.174a.675.675,0,0,0-.733.65c0,.026,0,.054,0,.07v.166l-7.664-1.714a.311.311,0,0,1-.251-.324v-3.338a.293.293,0,0,1,.074-.21.311.311,0,0,1,.247-.1h19.76A.308.308,0,0,1,323.662,427.573Z" fill="#00b1ff"/>
    <path id="Path_10859" data-name="Path 10859" d="M309.8,425.2h.032a.719.719,0,0,0,.718-.684v-.591a.29.29,0,0,1,.073-.21.314.314,0,0,1,.248-.1h5.213a.3.3,0,0,1,.21.074.314.314,0,0,1,.1.248v.528a.725.725,0,0,0,.233.5.786.786,0,0,0,.518.188.717.717,0,0,0,.688-.7v-.516a1.733,1.733,0,0,0-1.7-1.763h-5.285a1.735,1.735,0,0,0-1.732,1.7v.568A.724.724,0,0,0,309.8,425.2Z" fill="#00b1ff"/>
  </g>
</svg>
