<svg id="Group_2746" data-name="Group 2746" xmlns="http://www.w3.org/2000/svg" width="14.528" height="14.528" viewBox="0 0 14.528 14.528">
  <path id="Path_2835" data-name="Path 2835" d="M13.732,6.131H8.4V.807A.8.8,0,0,0,7.606,0H6.923a.8.8,0,0,0-.794.8V6.131H.795A.794.794,0,0,0,0,6.924V7.61A.792.792,0,0,0,.795,8.4H6.129v5.344a.787.787,0,0,0,.794.785h.683a.786.786,0,0,0,.793-.785V8.4h5.333a.793.793,0,0,0,.8-.791V6.924A.794.794,0,0,0,13.732,6.131Z" transform="translate(0 -0.002)" fill="#fff"/>
</svg>
