<svg xmlns="http://www.w3.org/2000/svg" width="39" height="33.584" viewBox="0 0 39 33.584">
  <g id="Group_4281" data-name="Group 4281" transform="translate(-949.131 -200.416)">
    <path id="_1063376" data-name="1063376" d="M30.12,3.636H21.874V2.727A2.73,2.73,0,0,0,19.147,0H11.876A2.73,2.73,0,0,0,9.15,2.727v.909H.909A.911.911,0,0,0,0,4.544V23.13a2.73,2.73,0,0,0,2.727,2.727H28.3a2.73,2.73,0,0,0,2.727-2.727V4.56a.882.882,0,0,0-.9-.924ZM10.967,2.727a.91.91,0,0,1,.909-.909h7.271a.91.91,0,0,1,.909.909v.909H10.967Zm7.271,11.815V16.36H12.785V14.542ZM29.205,23.13a.91.91,0,0,1-.909.909H2.727a.91.91,0,0,1-.909-.909V10.145l1.45,4.35A2.723,2.723,0,0,0,5.855,16.36h5.113v.909a.909.909,0,0,0,.909.909h7.271a.909.909,0,0,0,.909-.909V16.36h5.113A2.723,2.723,0,0,0,27.755,14.5l1.45-4.35Zm0,0" transform="translate(949.131 200.416)" fill="#00b1ff"/>
    <g id="Ellipse_15" data-name="Ellipse 15" transform="translate(967.131 213)" fill="#00b1ff" stroke="#fff" stroke-width="1">
      <circle cx="10.5" cy="10.5" r="10.5" stroke="none"/>
      <circle cx="10.5" cy="10.5" r="10" fill="none"/>
    </g>
    <g id="_271194" data-name="271194" transform="translate(972.131 218)">
      <g id="Group_2746" data-name="Group 2746">
        <path id="Path_2835" data-name="Path 2835" d="M10.56,4.715h-4.1V.621A.617.617,0,0,0,5.849,0H5.324a.618.618,0,0,0-.611.619V4.715H.611A.61.61,0,0,0,0,5.325v.528a.609.609,0,0,0,.611.608h4.1V10.57a.606.606,0,0,0,.611.6h.525a.6.6,0,0,0,.61-.6V6.461h4.1a.61.61,0,0,0,.612-.608V5.325A.611.611,0,0,0,10.56,4.715Z" transform="translate(0 -0.002)" fill="#fff"/>
      </g>
    </g>
  </g>
</svg>
