<svg xmlns="http://www.w3.org/2000/svg" width="36.277" height="36.271" viewBox="0 0 36.277 36.271">
  <g id="_650194" data-name="650194" transform="translate(2 2)">
    <g id="Group_3349" data-name="Group 3349" transform="translate(23.277 -2)">
      <g id="Group_3348" data-name="Group 3348">
        <path id="Path_2879" data-name="Path 2879" d="M364.5,4.355l-3.243-3.244a3.8,3.8,0,0,0-5.374,0l-1.269,1.27L363.236,11l1.269-1.27A3.8,3.8,0,0,0,364.5,4.355Z" transform="translate(-354.619 0)" fill="#00B1FF"/>
      </g>
    </g>
    <g id="Group_3351" data-name="Group 3351" transform="translate(0 27.971)">
      <g id="Group_3350" data-name="Group 3350" transform="translate(-2 -4)">
        <path id="Path_2880" data-name="Path 2880" d="M1.676,376.747.019,385.7a1.142,1.142,0,0,0,1.331,1.331l8.95-1.657Z" transform="translate(0 -376.747)" fill="#00B1FF"/>
      </g>
    </g>
    <g id="Group_3353" data-name="Group 3353" transform="translate(1.214 1.757)">
      <g id="Group_3352" data-name="Group 3352">
        <path id="Path_2881" data-name="Path 2881" d="M58.872,55.274,38.2,75.942l8.634,8.631L67.506,63.905Z" transform="translate(-38.198 -55.274)" fill="#00B1FF"/>
      </g>
    </g>
  </g>
</svg>
