<svg xmlns="http://www.w3.org/2000/svg" width="28.502" height="19.783" viewBox="0 0 28.502 19.783">
  <g id="_1103496" data-name="1103496" transform="translate(0.105 0.114)">
    <path id="Path_2830" data-name="Path 2830" d="M22.851,7.125A8.853,8.853,0,0,0,5.487,7.119,6.2,6.2,0,0,0,6.2,19.473h4.427a.885.885,0,1,0,0-1.771H6.2a4.427,4.427,0,1,1,.052-8.853.885.885,0,0,0,.88-.788,7.083,7.083,0,0,1,14.071,0,.938.938,0,0,0,.932.788,4.427,4.427,0,1,1,0,8.853H17.71a.885.885,0,0,0,0,1.771h4.427a6.2,6.2,0,0,0,.714-12.349Zm0,0" transform="translate(0.001 0)" fill="#00b1ff" stroke="#fff" stroke-width="0.2"/>
    <path id="Path_2831" data-name="Path 2831" d="M180.005,197.423a.885.885,0,1,0,1.274-1.23l-.022-.022-3.755-3.756a.885.885,0,0,0-1.252,0l0,0-3.755,3.756a.885.885,0,0,0,1.23,1.274l.022-.022,2.244-2.245V201.3a.885.885,0,1,0,1.771,0v-6.118Zm0,0" transform="translate(-162.705 -182.613)" fill="#00b1ff" stroke="#fff" stroke-width="0.2"/>
  </g>
</svg>
