<svg xmlns="http://www.w3.org/2000/svg" width="22.609" height="25.625" viewBox="0 0 22.609 25.625"><g transform="translate(0.3 0.205)"><g transform="translate(0)"><path d="M216.6,14.534l9.994-10a1.5,1.5,0,1,1,2.125,2.124l-10,9.995a1.5,1.5,0,1,1-2.123-2.123Z" transform="translate(-216.163 -4.1)" fill="#fff"/></g></g><g transform="translate(4.245 4.149)"><g transform="translate(0)"><path d="M146.849,82.9l.075.377a16.138,16.138,0,0,0,3.559,7.209l-5.438,5.438a16.085,16.085,0,0,0-7.175-3.594l-.378-.075Z" transform="translate(-137.494 -82.905)" fill="#fff"/></g></g><g transform="translate(12.924 12.862)"><g transform="translate(0)"><path d="M35.444,256.989,39.16,260.7a2.252,2.252,0,0,1,0,3.185l-2.123,2.123a2.252,2.252,0,0,1-3.185,0L30.136,262.3Zm-.531,5.839a.751.751,0,1,0,1.062-1.062l-1.062-1.062a.751.751,0,1,0-1.062,1.062Z" transform="translate(-30.136 -256.989)" fill="#fff"/></g></g><g transform="translate(8.108 17.321)"><g transform="translate(0)"><path d="M193.495,351.04l-1.021-1.021a2.25,2.25,0,0,1,0-3.185l.759-.759a14.227,14.227,0,0,1,1.209.914l-.906.907a.749.749,0,0,0,0,1.061L194.573,350l1.526-1.478,2.123,2.123-3.406,3.3a1.5,1.5,0,0,1-2.122-2.125Z" transform="translate(-191.813 -346.075)" fill="#fff"/></g></g><g transform="translate(6.006)"><g transform="translate(0)"><path d="M332.615,0a.75.75,0,0,1,.751.751v1.5a.751.751,0,0,1-1.5,0V.751A.75.75,0,0,1,332.615,0Z" transform="translate(-331.864)" fill="#fff"/></g></g><g transform="translate(0 6.006)"><path d="M422.615,120h1.5a.751.751,0,0,1,0,1.5h-1.5a.751.751,0,0,1,0-1.5Z" transform="translate(-421.864 -120)" fill="#fff"/></g><g transform="translate(1.501 1.501)"><g transform="translate(0)"><path d="M392.084,30.22a.751.751,0,0,1,1.062,0l1.5,1.5a.751.751,0,0,1-1.062,1.062l-1.5-1.5A.751.751,0,0,1,392.084,30.22Z" transform="translate(-391.864 -30)" fill="#fff"/></g></g></svg>