<svg xmlns="http://www.w3.org/2000/svg" width="36" height="36" viewBox="0 0 36 36">
  <g id="Group_8663" data-name="Group 8663" transform="translate(19334 3548)">
    <rect id="Rectangle_4229" data-name="Rectangle 4229" width="36" height="36" transform="translate(-19334 -3548)" fill="rgba(255,255,255,0)"/>
    <g id="dashboard" transform="translate(-19330 -3544)">
      <path id="Path_1325" data-name="Path 1325" d="M10.608,9.175h-8.6A2.009,2.009,0,0,1,0,7.168V2.007A2.009,2.009,0,0,1,2.007,0h8.6a2.009,2.009,0,0,1,2.007,2.007V7.168A2.009,2.009,0,0,1,10.608,9.175ZM2.007,1.72a.287.287,0,0,0-.287.287V7.168a.287.287,0,0,0,.287.287h8.6a.287.287,0,0,0,.287-.287V2.007a.287.287,0,0,0-.287-.287Zm0,0" transform="translate(0 0)" fill="#42516b"/>
      <path id="Path_1326" data-name="Path 1326" d="M10.608,229.388h-8.6A2.009,2.009,0,0,1,0,227.381V215.339a2.009,2.009,0,0,1,2.007-2.007h8.6a2.009,2.009,0,0,1,2.007,2.007v12.042A2.009,2.009,0,0,1,10.608,229.388Zm-8.6-14.335a.287.287,0,0,0-.287.287v12.042a.287.287,0,0,0,.287.287h8.6a.287.287,0,0,0,.287-.287V215.339a.287.287,0,0,0-.287-.287Zm0,0" transform="translate(0 -201.864)" fill="#42516b"/>
      <path id="Path_1327" data-name="Path 1327" d="M287.94,350.507h-8.6a2.009,2.009,0,0,1-2.007-2.007v-5.161a2.009,2.009,0,0,1,2.007-2.007h8.6a2.009,2.009,0,0,1,2.007,2.007V348.5A2.009,2.009,0,0,1,287.94,350.507Zm-8.6-7.454a.287.287,0,0,0-.287.287V348.5a.287.287,0,0,0,.287.287h8.6a.287.287,0,0,0,.287-.287v-5.161a.287.287,0,0,0-.287-.287Zm0,0" transform="translate(-262.424 -322.983)" fill="#42516b"/>
      <path id="Path_1328" data-name="Path 1328" d="M287.94,16.056h-8.6a2.009,2.009,0,0,1-2.007-2.007V2.007A2.009,2.009,0,0,1,279.339,0h8.6a2.009,2.009,0,0,1,2.007,2.007V14.048A2.009,2.009,0,0,1,287.94,16.056Zm-8.6-14.335a.287.287,0,0,0-.287.287V14.048a.287.287,0,0,0,.287.287h8.6a.287.287,0,0,0,.287-.287V2.007a.287.287,0,0,0-.287-.287Zm0,0" transform="translate(-262.424 0)" fill="#42516b"/>
    </g>
  </g>
</svg>
