<svg xmlns="http://www.w3.org/2000/svg" width="30.371" height="30.372" viewBox="0 0 30.371 30.372"><g transform="translate(0)"><path d="M26.281,0H4.095A4.093,4.093,0,0,0,0,4.093V26.279a4.093,4.093,0,0,0,4.093,4.093H15.037l.019-10.853h-2.82a.665.665,0,0,1-.665-.663l-.014-3.5a.665.665,0,0,1,.665-.668h2.815v-3.38c0-3.923,2.4-6.059,5.9-6.059H23.8a.665.665,0,0,1,.665.665v2.95a.665.665,0,0,1-.665.665H22.042c-1.9,0-2.272.9-2.272,2.232v2.926h4.182a.665.665,0,0,1,.661.744l-.415,3.5a.665.665,0,0,1-.661.587H19.789L19.77,30.372h6.511a4.093,4.093,0,0,0,4.093-4.093V4.093A4.093,4.093,0,0,0,26.281,0Z" transform="translate(-0.002)" fill="#4267b2"/></g></svg>