<svg xmlns="http://www.w3.org/2000/svg" width="28.547" height="28.547" viewBox="0 0 28.547 28.547"><path d="M6.327,147.81l-.994,3.71L1.7,151.6A14.3,14.3,0,0,1,1.6,138.268h0l3.233.593,1.416,3.214a8.518,8.518,0,0,0,.08,5.735Z" transform="translate(0 -130.559)" fill="#ffba00"/><path d="M275.338,208.176a14.268,14.268,0,0,1-5.088,13.8h0l-4.073-.208-.576-3.6a8.507,8.507,0,0,0,3.66-4.344h-7.632v-5.647h13.71Z" transform="translate(-247.041 -196.569)" fill="#2784fc"/><path d="M52.016,317.561h0A14.278,14.278,0,0,1,30.509,313.2l4.625-3.786a8.489,8.489,0,0,0,12.233,4.346Z" transform="translate(-28.808 -292.158)" fill="#00ac47"/><path d="M50.412,3.286,45.788,7.072a8.488,8.488,0,0,0-12.513,4.444l-4.65-3.807h0A14.276,14.276,0,0,1,50.412,3.286Z" transform="translate(-27.028)" fill="#fe2c25"/></svg>