<svg xmlns="http://www.w3.org/2000/svg" xmlns:xlink="http://www.w3.org/1999/xlink" width="29.936" height="29.936" viewBox="0 0 29.936 29.936"><defs><linearGradient id="a" x1="0.06" y1="1.103" x2="0.936" y2="0.05" gradientUnits="objectBoundingBox"><stop offset="0" stop-color="#f8b90a"/><stop offset="0.402" stop-color="#f1760a"/><stop offset="1" stop-color="#d5168f"/><stop offset="1" stop-color="#d41394"/></linearGradient></defs><g transform="translate(-17.252 -14.96)"><g transform="translate(17.252 14.96)"><path d="M21.018,0H8.918A8.928,8.928,0,0,0,0,8.918v12.1a8.928,8.928,0,0,0,8.918,8.918h12.1a8.928,8.928,0,0,0,8.918-8.918V8.918A8.928,8.928,0,0,0,21.018,0Zm5.907,21.018a5.907,5.907,0,0,1-5.907,5.907H8.918a5.907,5.907,0,0,1-5.907-5.907V8.918A5.907,5.907,0,0,1,8.918,3.012h12.1a5.907,5.907,0,0,1,5.907,5.907v12.1Z" fill="url(#a)"/><path d="M140.743,133a7.743,7.743,0,1,0,7.743,7.743A7.751,7.751,0,0,0,140.743,133Zm0,12.474a4.731,4.731,0,1,1,4.731-4.731A4.731,4.731,0,0,1,140.743,145.474Z" transform="translate(-125.774 -125.774)" fill="url(#a)"/><circle cx="1.855" cy="1.855" r="1.855" transform="translate(20.87 5.428)" fill="url(#a)"/></g></g></svg>