<svg xmlns="http://www.w3.org/2000/svg" width="22.95" height="29.188" viewBox="0 0 22.95 29.188">
  <g id="Group_4408" data-name="Group 4408" transform="translate(0)">
    <path id="Path_3068" data-name="Path 3068" d="M92.3,270.73l4.067-9.819L93.1,259.558l-4.686,11.313a.61.61,0,0,0,.742.816l2.657-.815a.585.585,0,0,1,.233-.024Z" transform="translate(-86.45 -244.762)" fill="#e3e5eb"/>
    <path id="Path_3069" data-name="Path 3069" d="M157.071,282.027l-4.146,10.009a.609.609,0,0,1,.485.321l1.3,2.455a.61.61,0,0,0,1.1-.052l4.686-11.313Z" transform="translate(-147.326 -265.949)" fill="#e3e5eb"/>
    <path id="Path_3070" data-name="Path 3070" d="M229.707,281.364l-3.521,1.458,4.686,11.313a.61.61,0,0,0,1.1.052l1.3-2.455a.609.609,0,0,1,.158-.191l.319-.4Z" transform="translate(-216.411 -265.325)" fill="#e3e5eb"/>
    <path id="Path_3071" data-name="Path 3071" d="M288.743,270.87l-4.686-11.313-3.418,1.416,4.144,10.005a.61.61,0,0,1,.56-.107l2.657.815A.61.61,0,0,0,288.743,270.87Z" transform="translate(-267.761 -244.761)" fill="#e3e5eb"/>
    <path id="Path_3072" data-name="Path 3072" d="M67.353.41a1.893,1.893,0,0,0,1.738.325,1.893,1.893,0,0,1,2.194.85,1.893,1.893,0,0,0,1.5.931A1.893,1.893,0,0,1,74.528,4.1a1.893,1.893,0,0,0,1.066,1.411,1.893,1.893,0,0,1,1.049,2.107,1.893,1.893,0,0,0,.484,1.7,1.893,1.893,0,0,1,.217,2.343,1.893,1.893,0,0,0-.163,1.761,1.893,1.893,0,0,1-.644,2.263,1.893,1.893,0,0,0-.788,1.583,1.893,1.893,0,0,1-1.418,1.878,1.893,1.893,0,0,0-1.307,1.191,1.893,1.893,0,0,1-2,1.239,1.893,1.893,0,0,0-1.649.639,1.893,1.893,0,0,1-2.313.432,1.893,1.893,0,0,0-1.768,0,1.893,1.893,0,0,1-2.313-.432,1.893,1.893,0,0,0-1.649-.639,1.893,1.893,0,0,1-2-1.239,1.893,1.893,0,0,0-1.307-1.191A1.893,1.893,0,0,1,56.6,17.27a1.893,1.893,0,0,0-.788-1.583,1.893,1.893,0,0,1-.644-2.263,1.893,1.893,0,0,0-.163-1.761,1.893,1.893,0,0,1,.217-2.343,1.893,1.893,0,0,0,.484-1.7,1.893,1.893,0,0,1,1.049-2.107A1.893,1.893,0,0,0,57.825,4.1a1.893,1.893,0,0,1,1.739-1.585,1.893,1.893,0,0,0,1.5-.931,1.893,1.893,0,0,1,2.194-.85A1.893,1.893,0,0,0,65,.41a1.893,1.893,0,0,1,2.353,0Z" transform="translate(-54.702 0)" fill="#dddfe5"/>
    <path id="Path_3074" data-name="Path 3074" d="M225.23,54.07a8.378,8.378,0,0,0-1.86.208,8.354,8.354,0,0,1,0,16.287,8.352,8.352,0,1,0,1.86-16.5Z" transform="translate(-213.755 -50.988)" fill="#f8f8fa"/>
    <g id="Group_3985" data-name="Group 3985" transform="translate(14.42 9.43)">
      <path id="Path_3076" data-name="Path 3076" d="M307.826,273.3a.412.412,0,0,0,.626-.455l-.173-.606a8.36,8.36,0,0,1-.621.948Z" transform="translate(-307.658 -266.153)" fill="#d6d9e1"/>
      <path id="Path_3077" data-name="Path 3077" d="M334.039,165.476l-1.034-.037a8.341,8.341,0,0,1,.232,1.589l1.042-.815A.412.412,0,0,0,334.039,165.476Z" transform="translate(-331.56 -165.439)" fill="#d6d9e1"/>
    </g>
    <path id="Path_3073" data-name="Path 3073" d="M123.006,63.025a8.785,8.785,0,0,0-5.951-8.315,8.352,8.352,0,0,0,0,16.631A8.785,8.785,0,0,0,123.006,63.025Z" transform="translate(-106.366 -51.591)" fill="#fff"/>
    <path id="Path_3075" data-name="Path 3075" d="M159.929,106.252l2.883,1.94a.4.4,0,0,0,.348.054q.153-.208.294-.424a.438.438,0,0,0-.015-.084l-.955-3.341a.412.412,0,0,1,.142-.438l2.2-1.723a8.771,8.771,0,0,0-.188-1.172l-2.989-.107a.412.412,0,0,1-.372-.27l-1.192-3.264a.412.412,0,0,0-.774,0l-1.192,3.264a.412.412,0,0,1-.372.271l-3.473.125a.412.412,0,0,0-.239.736l2.736,2.142a.412.412,0,0,1,.142.438l-.955,3.341a.412.412,0,0,0,.626.455l2.883-1.94A.412.412,0,0,1,159.929,106.252Z" transform="translate(-148.224 -91.612)" fill="#dddfe5"/>
  </g>
</svg>
