<svg xmlns="http://www.w3.org/2000/svg" width="247.041" height="25.119" viewBox="0 0 247.041 25.119"><path d="M257.7,6.442a.884.884,0,0,0-.666-.282h-18.89a.859.859,0,0,0-.666.282.941.941,0,0,0-.265.683v4.52a.9.9,0,0,0,.265.649.859.859,0,0,0,.666.282h18.89a.884.884,0,0,0,.666-.282.9.9,0,0,0,.265-.649V7.125A1.017,1.017,0,0,0,257.7,6.442Z" transform="translate(-39.962 -5.699)" fill="#00b1ff"/><path d="M231.628,6.442a.884.884,0,0,0-.666-.282h-18.89a.859.859,0,0,0-.666.282.941.941,0,0,0-.265.683v4.52a.9.9,0,0,0,.265.649.859.859,0,0,0,.666.282h18.89a.884.884,0,0,0,.666-.282.9.9,0,0,0,.265-.649V7.125A.941.941,0,0,0,231.628,6.442Z" transform="translate(-36.165 -5.699)" fill="#00b1ff"/><path d="M59.913,6.16a12.371,12.371,0,0,1,9.014,3.375A11.686,11.686,0,0,1,72.361,18.3a11.761,11.761,0,0,1-3.469,8.732,12.044,12.044,0,0,1-8.86,3.409H46.405a.935.935,0,0,1-.683-.282.888.888,0,0,1-.282-.649V7.091a.874.874,0,0,1,.282-.649.922.922,0,0,1,.683-.282Zm2.939,8.578a4.073,4.073,0,0,0-3.187-1.2H54.214v9.535h5.2a4.465,4.465,0,0,0,3.375-1.2,4.942,4.942,0,0,0,1.145-3.546A5.209,5.209,0,0,0,62.852,14.738Z" transform="translate(-12.035 -5.699)" fill="#00b1ff"/><path d="M104.613,6.16a.929.929,0,0,1,.914.53.887.887,0,0,1-.137,1.017L94.609,20.718v8.8a.888.888,0,0,1-.282.649.922.922,0,0,1-.684.282H86.706a.965.965,0,0,1-.931-.931v-8.8L74.984,7.706a.846.846,0,0,1-.171-1.017.942.942,0,0,1,.914-.53h8.014a.986.986,0,0,1,.4.111.791.791,0,0,1,.342.231l6.288,7.766,5.733-7.706a.622.622,0,0,1,.342-.282,1.116,1.116,0,0,1,.436-.12h7.331Z" transform="translate(-16.297 -5.699)" fill="#00b1ff"/><path d="M134.588,27.637q-3.691,3.1-10.868,3.1t-10.868-3.1q-3.691-3.1-3.682-9.441c0-4.238,1.23-7.382,3.682-9.458S118.935,5.62,123.72,5.62s8.407,1.042,10.868,3.118,3.682,5.229,3.682,9.458S137.048,25.57,134.588,27.637Zm-6.425-13.456a8.014,8.014,0,0,0-8.877,0,5.086,5.086,0,0,0-1.521,4.007,5.069,5.069,0,0,0,1.521,4.007,6.476,6.476,0,0,0,4.434,1.35,6.545,6.545,0,0,0,4.443-1.35,5.044,5.044,0,0,0,1.529-4.007A5.032,5.032,0,0,0,128.163,14.181Z" transform="translate(-21.316 -5.62)" fill="#00b1ff"/><path d="M162.581,7.051a.888.888,0,0,1,.282-.649.922.922,0,0,1,.684-.282h6.382a.964.964,0,0,1,.931.931V22.78c0,3-1.145,5.109-3.435,6.348q-3.165,1.666-9.167,1.666-6.19,0-9.193-1.666c-2.2-1.239-3.315-3.46-3.315-6.656V7.051a.888.888,0,0,1,.282-.649.922.922,0,0,1,.684-.282h6.348a.935.935,0,0,1,.684.282.888.888,0,0,1,.282.649V19.807a3.882,3.882,0,0,0,1.008,3.033,5,5,0,0,0,3.358.9,4.564,4.564,0,0,0,3.221-.948,4.126,4.126,0,0,0,.991-3.084V7.051Z" transform="translate(-26.643 -5.693)" fill="#00b1ff"/><path d="M193.239,16.054c.572.795,1.162,1.606,1.76,2.435V7.091a.874.874,0,0,1,.282-.649.922.922,0,0,1,.684-.282h6.04a.935.935,0,0,1,.684.282.888.888,0,0,1,.282.649V29.51a.888.888,0,0,1-.282.649.922.922,0,0,1-.684.282h-6.937a1.1,1.1,0,0,1-.4-.1.971.971,0,0,1-.367-.265L185.567,18.3V29.51a.888.888,0,0,1-.282.649.922.922,0,0,1-.684.282h-6.04a.965.965,0,0,1-.931-.931V7.091a.874.874,0,0,1,.282-.649.888.888,0,0,1,.649-.282h6.878a1.191,1.191,0,0,1,.453.12.641.641,0,0,1,.325.282q1.358,1.858,2.649,3.605t2.614,3.511C192.069,14.473,192.658,15.259,193.239,16.054Z" transform="translate(-31.285 -5.699)" fill="#00b1ff"/><path d="M278.455,6.16a12.337,12.337,0,0,1,9.005,3.375A11.692,11.692,0,0,1,290.9,18.3a11.794,11.794,0,0,1-3.469,8.732,12.024,12.024,0,0,1-8.851,3.409H264.955a.935.935,0,0,1-.684-.282.888.888,0,0,1-.282-.649V7.091a.874.874,0,0,1,.282-.649.922.922,0,0,1,.684-.282Zm2.939,8.578a4.073,4.073,0,0,0-3.187-1.2h-5.451v9.535h5.2a4.465,4.465,0,0,0,3.375-1.2,4.9,4.9,0,0,0,1.145-3.546A5.209,5.209,0,0,0,281.393,14.738Z" transform="translate(-43.862 -5.699)" fill="#00b1ff"/><path d="M38.362,29.076,26.375,6.691a1.078,1.078,0,0,0-.367-.367.871.871,0,0,0-.461-.154H20.061a1,1,0,0,0-.461.154.875.875,0,0,0-.376.342L6.5,29.042A.869.869,0,0,0,6.468,30a.99.99,0,0,0,.9.436h6.408a.933.933,0,0,0,.5-.154,1.107,1.107,0,0,0,.376-.367l7.587-13.875,7.185,13.875a.779.779,0,0,0,.359.367.974.974,0,0,0,.478.154H37.5a.934.934,0,0,0,.871-.419A.989.989,0,0,0,38.362,29.076Z" transform="translate(-6.341 -5.7)" fill="#00b1ff"/><path d="M257.7,27.352a.884.884,0,0,0-.666-.282h-18.89a.859.859,0,0,0-.666.282.941.941,0,0,0-.265.683v4.52a.9.9,0,0,0,.265.649.859.859,0,0,0,.666.282h18.89a.884.884,0,0,0,.666-.282.9.9,0,0,0,.265-.649v-4.52A1.017,1.017,0,0,0,257.7,27.352Z" transform="translate(-39.962 -8.744)" fill="#00b1ff"/><path d="M231.628,27.352a.884.884,0,0,0-.666-.282h-18.89a.859.859,0,0,0-.666.282.941.941,0,0,0-.265.683v4.52a.9.9,0,0,0,.265.649.859.859,0,0,0,.666.282h18.89a.884.884,0,0,0,.666-.282.9.9,0,0,0,.265-.649v-4.52A.941.941,0,0,0,231.628,27.352Z" transform="translate(-36.165 -8.744)" fill="#00b1ff"/><path d="M247.987,16.842a.888.888,0,0,0-.649-.282H220.391a.964.964,0,0,0-.931.931v4.46a.922.922,0,0,0,.282.683.888.888,0,0,0,.649.282h26.947a.888.888,0,0,0,.649-.282.922.922,0,0,0,.282-.683v-4.46A.888.888,0,0,0,247.987,16.842Z" transform="translate(-37.377 -7.213)" fill="#00b1ff"/></svg>
