<svg xmlns="http://www.w3.org/2000/svg" width="31.045" height="17.518" viewBox="0 0 31.045 17.518">
  <g id="Group_4617" data-name="Group 4617" transform="translate(-126.248 -0.334)">
    <path id="Path_1" data-name="Path 1" d="M251.992,6.363a.638.638,0,0,0-.481-.2h-13.63a.62.62,0,0,0-.481.2.679.679,0,0,0-.191.493v3.261a.652.652,0,0,0,.191.469.62.62,0,0,0,.481.2h13.63a.638.638,0,0,0,.481-.2.652.652,0,0,0,.191-.469V6.857A.734.734,0,0,0,251.992,6.363Z" transform="translate(-94.891 -5.826)" fill="#00b1ff"/>
    <path id="Path_2" data-name="Path 2" d="M225.922,6.363a.638.638,0,0,0-.481-.2h-13.63a.62.62,0,0,0-.481.2.679.679,0,0,0-.191.493v3.261a.652.652,0,0,0,.191.469.62.62,0,0,0,.481.2h13.63a.638.638,0,0,0,.481-.2.652.652,0,0,0,.191-.469V6.857A.679.679,0,0,0,225.922,6.363Z" transform="translate(-84.892 -5.826)" fill="#00b1ff"/>
    <path id="Path_10" data-name="Path 10" d="M251.992,27.273a.638.638,0,0,0-.481-.2h-13.63a.62.62,0,0,0-.481.2.679.679,0,0,0-.191.493v3.261a.652.652,0,0,0,.191.469.62.62,0,0,0,.481.2h13.63a.638.638,0,0,0,.481-.2.652.652,0,0,0,.191-.469V27.767A.734.734,0,0,0,251.992,27.273Z" transform="translate(-94.891 -13.848)" fill="#00b1ff"/>
    <path id="Path_11" data-name="Path 11" d="M225.922,27.273a.638.638,0,0,0-.481-.2h-13.63a.62.62,0,0,0-.481.2.679.679,0,0,0-.191.493v3.261a.652.652,0,0,0,.191.469.62.62,0,0,0,.481.2h13.63a.638.638,0,0,0,.481-.2.652.652,0,0,0,.191-.469V27.767A.679.679,0,0,0,225.922,27.273Z" transform="translate(-84.892 -13.848)" fill="#00b1ff"/>
    <path id="Path_12" data-name="Path 12" d="M240.043,16.763a.641.641,0,0,0-.469-.2H220.132a.7.7,0,0,0-.672.672V20.45a.665.665,0,0,0,.2.493.64.64,0,0,0,.469.2h19.443a.641.641,0,0,0,.468-.2.665.665,0,0,0,.2-.493V17.232A.641.641,0,0,0,240.043,16.763Z" transform="translate(-88.082 -9.816)" fill="#00b1ff"/>
  </g>
</svg>
