<svg xmlns="http://www.w3.org/2000/svg" width="20.433" height="16.679" viewBox="0 0 20.433 16.679"><g transform="translate(0 0)"><path d="M8.34,56.543a.339.339,0,0,1-.026-.176c.009-.047-.022-.087-.091-.117s-.1-.054-.1-.072-.05-.03-.15-.039l-.15-.013H3.753a2.007,2.007,0,0,1-1.473-.613,2.007,2.007,0,0,1-.612-1.472V44.868A2.007,2.007,0,0,1,2.28,43.4a2.008,2.008,0,0,1,1.473-.613h4.17A.394.394,0,0,0,8.19,42.7a.433.433,0,0,0,.13-.254,2.193,2.193,0,0,0,.039-.306,3.242,3.242,0,0,0-.007-.345q-.013-.208-.013-.261a.423.423,0,0,0-.417-.417H3.753a3.615,3.615,0,0,0-2.652,1.1A3.615,3.615,0,0,0,0,44.868v9.174a3.614,3.614,0,0,0,1.1,2.652,3.614,3.614,0,0,0,2.652,1.1h4.17a.4.4,0,0,0,.267-.085.433.433,0,0,0,.13-.254,2.2,2.2,0,0,0,.039-.306,3.239,3.239,0,0,0-.007-.345Q8.34,56.6,8.34,56.543Z" transform="translate(0 -41.115)" fill="#6e707f"/><path d="M124.814,57.583l-7.089-7.089a.834.834,0,0,0-1.42.586v3.753h-5.838a.845.845,0,0,0-.834.834v5a.846.846,0,0,0,.834.834H116.3v3.753a.829.829,0,0,0,1.42.586l7.089-7.089a.818.818,0,0,0,0-1.173Z" transform="translate(-104.629 -49.829)" fill="#6e707f"/></g></svg>
