<svg xmlns="http://www.w3.org/2000/svg" width="23.725" height="23.726" viewBox="0 0 23.725 23.726">
  <g id="roadmap" transform="translate(-0.004)">
    <path id="Path_3382" data-name="Path 3382" d="M224.954,293.078a.7.7,0,0,0-.642-.429h-.7a6.275,6.275,0,0,0-12.55,0v3.485a.7.7,0,0,0,.7.7h2.79a.7.7,0,0,0,.7-.7v-3.485a2.095,2.095,0,0,1,4.19,0h-.7a.7.7,0,0,0-.491,1.187l2.79,2.79a.7.7,0,0,0,.983,0l2.79-2.79A.7.7,0,0,0,224.954,293.078Z" transform="translate(-201.278 -273.104)" fill="#42526b"/>
    <path id="Path_3383" data-name="Path 3383" d="M181.652,4.18h.7V8a7.693,7.693,0,0,1,4.18,2.977V4.18h.7a.7.7,0,0,0,.491-1.187L184.934.2a.7.7,0,0,0-.983,0l-2.79,2.79a.7.7,0,0,0,.492,1.187Z" transform="translate(-172.568 0)" fill="#42526b"/>
    <path id="Path_3384" data-name="Path 3384" d="M9.773,57.875a7.709,7.709,0,0,1,3.452-2.74,6.281,6.281,0,0,0-5.537-3.324,2.1,2.1,0,0,1-2.095-2.095v-.749H6.28a.7.7,0,0,0,.47-1.208L3.98,44.991a.7.7,0,0,0-.983,0L.207,47.78A.7.7,0,0,0,.7,48.967h.707l.008.753a6.282,6.282,0,0,0,6.275,6.271A2.1,2.1,0,0,1,9.773,57.875Z" transform="translate(0 -42.711)" fill="#42526b"/>
  </g>
</svg>
