<svg xmlns="http://www.w3.org/2000/svg" width="22.418" height="22.42" viewBox="0 0 22.418 22.42">
  <g id="roadmap" transform="translate(-0.004)">
    <path id="Path_3382" data-name="Path 3382" d="M224.189,292.709a.657.657,0,0,0-.607-.405h-.661a5.929,5.929,0,0,0-11.859,0V295.6a.657.657,0,0,0,.657.657h2.636a.657.657,0,0,0,.657-.657V292.3a1.98,1.98,0,0,1,3.959,0h-.662a.657.657,0,0,0-.464,1.121l2.636,2.636a.657.657,0,0,0,.929,0l2.636-2.636A.657.657,0,0,0,224.189,292.709Z" transform="translate(-201.817 -273.834)" fill="#fff"/>
    <path id="Path_3383" data-name="Path 3383" d="M181.614,3.95h.661V7.56a7.27,7.27,0,0,1,3.95,2.813V3.95h.661a.657.657,0,0,0,.464-1.121L184.715.193a.657.657,0,0,0-.929,0L181.15,2.829a.657.657,0,0,0,.464,1.121Z" transform="translate(-173.03 0)" fill="#fff"/>
    <path id="Path_3384" data-name="Path 3384" d="M9.235,57.154A7.284,7.284,0,0,1,12.5,54.565a5.935,5.935,0,0,0-5.232-3.141,1.982,1.982,0,0,1-1.979-1.979v-.708h.648A.657.657,0,0,0,6.378,47.6L3.761,44.979a.657.657,0,0,0-.929,0L.2,47.616a.657.657,0,0,0,.464,1.121h.668l.007.711a5.936,5.936,0,0,0,5.93,5.926A1.982,1.982,0,0,1,9.235,57.154Z" transform="translate(0 -42.826)" fill="#fff"/>
  </g>
</svg>
