<svg xmlns="http://www.w3.org/2000/svg" width="20.969" height="20.969" viewBox="0 0 20.969 20.969"><path d="M20.86,8.676a.43.43,0,0,0-.287-.171l-2.5-.382a8.226,8.226,0,0,0-.56-1.338q.245-.341.737-.962t.7-.908a.526.526,0,0,0,.109-.314.439.439,0,0,0-.1-.3,18.654,18.654,0,0,0-2.252-2.321.527.527,0,0,0-.341-.136.443.443,0,0,0-.328.123L14.1,3.426a8.438,8.438,0,0,0-1.229-.505L12.491.41a.4.4,0,0,0-.157-.294A.515.515,0,0,0,12,0H8.969a.459.459,0,0,0-.491.382,22.291,22.291,0,0,0-.4,2.539,7.812,7.812,0,0,0-1.242.519L4.955,1.979A.581.581,0,0,0,4.6,1.843q-.3,0-1.29.976A13.6,13.6,0,0,0,1.966,4.287a.575.575,0,0,0-.123.314.512.512,0,0,0,.136.328Q2.894,6.034,3.44,6.812a6.732,6.732,0,0,0-.532,1.256L.369,8.45a.412.412,0,0,0-.259.178A.525.525,0,0,0,0,8.942v3.031a.515.515,0,0,0,.109.321.43.43,0,0,0,.287.171l2.5.369a6.743,6.743,0,0,0,.56,1.351q-.246.341-.737.962t-.7.908a.527.527,0,0,0-.109.314.534.534,0,0,0,.1.314,17.988,17.988,0,0,0,2.253,2.294.47.47,0,0,0,.341.15A.491.491,0,0,0,4.942,19l1.925-1.461a8.469,8.469,0,0,0,1.229.505l.382,2.512a.406.406,0,0,0,.157.294.514.514,0,0,0,.334.116H12a.46.46,0,0,0,.492-.382,22.369,22.369,0,0,0,.4-2.539,7.8,7.8,0,0,0,1.242-.519L16.014,19a.666.666,0,0,0,.355.123q.3,0,1.283-.969A13.781,13.781,0,0,0,19,16.682a.456.456,0,0,0,.123-.314.525.525,0,0,0-.137-.341q-.982-1.2-1.461-1.884a8.751,8.751,0,0,0,.532-1.242l2.526-.382a.416.416,0,0,0,.273-.178.527.527,0,0,0,.109-.314V9A.513.513,0,0,0,20.86,8.676Zm-7.9,4.28a3.366,3.366,0,0,1-2.471,1.024A3.5,3.5,0,0,1,6.99,10.484,3.5,3.5,0,0,1,10.485,6.99a3.5,3.5,0,0,1,3.495,3.495A3.366,3.366,0,0,1,12.956,12.955Z" fill="#6e707f"/></svg>