<svg xmlns="http://www.w3.org/2000/svg" width="36" height="36" viewBox="0 0 36 36">
  <g id="Group_8665" data-name="Group 8665" transform="translate(19334 3460)">
    <rect id="Rectangle_4231" data-name="Rectangle 4231" width="36" height="36" transform="translate(-19334 -3460)" fill="rgba(255,255,255,0)"/>
    <path id="Path_10852" data-name="Path 10852" d="M331.543,416.089a3.462,3.462,0,0,0-2.326-.9h0a3.467,3.467,0,0,0-3.465,3.467,3.478,3.478,0,0,0,.316,1.449l-4.851,4.852a4.486,4.486,0,0,0-5.109,0l-3.706-3.708a2.4,2.4,0,0,0-2.18-3.421h0a2.411,2.411,0,1,0,1.01,4.591l3.707,3.708a4.483,4.483,0,0,0,0,5.108l-6.307,6.31a3.435,3.435,0,1,0,.486,5.03,3.44,3.44,0,0,0,.559-3.734l6.434-6.435a4.5,4.5,0,0,0,1.727.717v4.86a3.466,3.466,0,0,0-1.181,6.191,3.436,3.436,0,0,0,2,.642,3.509,3.509,0,0,0,.586-.049,3.466,3.466,0,0,0,.25-6.784v-4.86a4.5,4.5,0,0,0,1.727-.717l3.707,3.708a2.431,2.431,0,1,0,1.171-1.17l-3.707-3.707a4.486,4.486,0,0,0,0-5.108l4.723-4.725a3.471,3.471,0,0,0,4.674-.426,3.464,3.464,0,0,0-.242-4.892Zm-5.192,21.038a.753.753,0,1,1,1.507,0v.065a.755.755,0,0,1-1.507-.066Zm-18.016,3.165a1.811,1.811,0,1,1-1.811-1.809A1.816,1.816,0,0,1,308.335,440.292Zm2.634-20.058a.758.758,0,0,1-.752.759h0a.756.756,0,1,1,.755-.759Zm4.826,8.451a2.866,2.866,0,1,1,2.866,2.867h0A2.87,2.87,0,0,1,315.8,428.685Zm4.678,12.666a1.811,1.811,0,1,1-1.815-1.812A1.813,1.813,0,0,1,320.473,441.351Zm10.553-22.693a1.811,1.811,0,1,1-1.811-1.811A1.817,1.817,0,0,1,331.026,418.658Z" transform="translate(-19634.123 -3872.192)" fill="#42516b"/>
  </g>
</svg>
