<svg xmlns="http://www.w3.org/2000/svg" width="36" height="36" viewBox="0 0 36 36">
  <g id="Group_8667" data-name="Group 8667" transform="translate(19334 3378)">
    <rect id="Rectangle_4237" data-name="Rectangle 4237" width="36" height="36" transform="translate(-19334 -3378)" fill="rgba(255,255,255,0)"/>
    <g id="transform-text" transform="translate(-19330 -3374.716)">
      <path id="Path_3385" data-name="Path 3385" d="M93.432,79.534h-11.1a.7.7,0,0,0-.7.7v3.087a.7.7,0,0,0,1.4,0V80.938h4.147V91.163H85.752a.7.7,0,1,0,0,1.4h4.258a.7.7,0,0,0,0-1.4H88.583V80.938H92.73v2.385a.7.7,0,0,0,1.4,0V80.236A.7.7,0,0,0,93.432,79.534Z" transform="translate(-73.984 -71.438)" fill="#42516b"/>
      <path id="Path_3386" data-name="Path 3386" d="M27.357,7.4a.7.7,0,0,0,.7-.7V1.418a.7.7,0,0,0-.7-.7H22.079a.7.7,0,0,0-.7.7V3.355H6.682V1.418a.7.7,0,0,0-.7-.7H.7a.7.7,0,0,0-.7.7V6.7a.7.7,0,0,0,.7.7H2.639V21.959H.7a.7.7,0,0,0-.7.7v5.278a.7.7,0,0,0,.7.7H5.98a.7.7,0,0,0,.7-.7V26H21.377v1.937a.7.7,0,0,0,.7.7h5.278a.7.7,0,0,0,.7-.7V22.661a.7.7,0,0,0-.7-.7H25.42V7.4ZM22.782,2.12h3.873V5.994H22.782ZM1.4,2.12H5.278V5.994H1.4ZM5.278,27.237H1.4V23.363H5.278Zm21.377,0H22.782V23.363h3.873Zm-2.639-5.278H22.079a.7.7,0,0,0-.7.7V24.6H6.682V22.661a.7.7,0,0,0-.7-.7H4.043V7.4H5.98a.7.7,0,0,0,.7-.7V4.759H21.377V6.7a.7.7,0,0,0,.7.7h1.937V21.959Z" transform="translate(0 0)" fill="#42516b"/>
    </g>
  </g>
</svg>
