<svg xmlns="http://www.w3.org/2000/svg" width="26.488" height="30" viewBox="0 0 26.488 30"><g transform="translate(3.471 1.353)"><path d="M113.576,213.071a4.223,4.223,0,0,0-2.195,7.866,4.157,4.157,0,0,1-.677-2.218,4.256,4.256,0,0,1,4.283-4.295,4.424,4.424,0,0,1,1.347.212V209.9a9.312,9.312,0,0,0-1.347-.1h-.065v3.483A4.423,4.423,0,0,0,113.576,213.071Z" transform="translate(-108.086 -198.868)" fill="#ff0050"/><path d="M337.459,24H336.2a7.235,7.235,0,0,0,2.736,4.36A7.288,7.288,0,0,1,337.459,24Z" transform="translate(-321.644 -24)" fill="#ff0050"/><path d="M111.816,144.429a7.328,7.328,0,0,1-1.353-.129v3.395a11.671,11.671,0,0,1-4.613-.935,12.051,12.051,0,0,1-2.624-1.53l.024,10.467a8.756,8.756,0,0,1-2.624,6.225,8.925,8.925,0,0,1-4.989,2.495,9.314,9.314,0,0,1-1.347.1,8.936,8.936,0,0,1-5.489-1.859,7.971,7.971,0,0,0,.571.618,8.966,8.966,0,0,0,6.337,2.595,9.312,9.312,0,0,0,1.347-.1,8.925,8.925,0,0,0,4.989-2.495,8.756,8.756,0,0,0,2.624-6.225l-.088-10.467a11.558,11.558,0,0,0,2.624,1.53,11.817,11.817,0,0,0,4.613.935" transform="translate(-88.8 -137.222)" fill="#ff0050"/></g><path d="M33.824,190.76a8.954,8.954,0,0,1,6.284-2.606V186.9a9.314,9.314,0,0,0-1.347-.1,8.945,8.945,0,0,0-6.348,2.606,8.793,8.793,0,0,0,.012,12.52,8.962,8.962,0,0,0,.841.735,8.764,8.764,0,0,1-2.059-5.642A8.871,8.871,0,0,1,33.824,190.76Z" transform="translate(-29.8 -175.868)" fill="#00f2ea"/><path d="M387.165,100.818V99.559h-.012A7.18,7.18,0,0,1,382.8,98.1,7.188,7.188,0,0,0,387.165,100.818Z" transform="translate(-362.031 -92.387)" fill="#00f2ea"/><path d="M148.165,26.37a4.42,4.42,0,0,0,1.589-.206,4.24,4.24,0,0,0,2.936-4.018l.006-7V2.353h3.365A7.328,7.328,0,0,1,155.92,1h-4.636V13.785l-.006,7a4.24,4.24,0,0,1-2.936,4.018,4.175,4.175,0,0,1-1.589.206,4.317,4.317,0,0,1-1.953-.594A4.292,4.292,0,0,0,148.165,26.37Z" transform="translate(-138.034 -1)" fill="#00f2ea"/><path d="M62.7,51.194A8.925,8.925,0,0,0,67.685,48.7a8.756,8.756,0,0,0,2.624-6.225l-.024-10.467a11.558,11.558,0,0,0,2.624,1.53,11.817,11.817,0,0,0,4.613.935V31.078a7.187,7.187,0,0,1-4.366-2.718A7.208,7.208,0,0,1,70.42,24H67.049V36.785l-.006,7A4.24,4.24,0,0,1,64.107,47.8a4.175,4.175,0,0,1-1.589.206,4.293,4.293,0,0,1-3.365-1.947A4.223,4.223,0,0,1,61.348,38.2a4.424,4.424,0,0,1,1.347.212V34.926a8.954,8.954,0,0,0-6.284,2.606A8.812,8.812,0,0,0,53.8,43.786a8.7,8.7,0,0,0,2.059,5.642,8.948,8.948,0,0,0,5.489,1.859A8.546,8.546,0,0,0,62.7,51.194Z" transform="translate(-52.387 -22.647)"/></svg>