<svg xmlns="http://www.w3.org/2000/svg" width="36" height="36" viewBox="0 0 36 36">
  <g id="Group_8666" data-name="Group 8666" transform="translate(19334 3416)">
    <rect id="Rectangle_4232" data-name="Rectangle 4232" width="36" height="36" transform="translate(-19334 -3416)" fill="rgba(255,255,255,0)"/>
    <path id="Path_10851" data-name="Path 10851" d="M314.564,424.82a2,2,0,0,0-1.126-2.55v-3.285l.344-.154a.752.752,0,0,0,0-1.374l-10.035-4.479a.686.686,0,0,0-.087-.047l-6.9-3.086a.772.772,0,0,0-.309-.065.76.76,0,0,0-.287.065l-6.9,3.087a.453.453,0,0,0-.074.039l-10.053,4.487a.755.755,0,0,0,0,1.373l6.2,2.772v6.715a.75.75,0,0,0,.724.751c.064,0,6.741.308,10.038,2.186a.76.76,0,0,0,.375.1.736.736,0,0,0,.352-.1c3.3-1.882,9.975-2.183,10.041-2.186a.747.747,0,0,0,.72-.751V421.6l4.348-1.944v2.61a2,2,0,0,0-.136,3.651l-.939,2.638a.72.72,0,0,0,.436.917.7.7,0,0,0,.241.042h2.3a.721.721,0,0,0,.681-.954l-.91-2.656A1.986,1.986,0,0,0,314.564,424.82Zm-1.869,2.419.34.992h-.694Zm-.009-2.616a.5.5,0,0,1-.032-.991h.032a.5.5,0,0,1,0,.991Zm-1.055-6.483-4.212,1.888a.806.806,0,0,0-.139-.135,17.913,17.913,0,0,0-3.9-2.17,21.561,21.561,0,0,0-6.91-1.577h-.025a21.525,21.525,0,0,0-6.9,1.576,17.938,17.938,0,0,0-3.9,2.165.72.72,0,0,0-.14.136l-4.212-1.884,8.766-3.914a.485.485,0,0,0,.076-.04l6.33-2.83,6.319,2.824a.641.641,0,0,0,.087.047Zm-24.792,2.742a16.648,16.648,0,0,1,3.27-1.767,14.5,14.5,0,0,1,12.7,0,16.566,16.566,0,0,1,3.27,1.767v6.729c-1.6.114-6.574.586-9.621,2.132-3.047-1.546-8.018-2.018-9.62-2.132Z" transform="translate(-19612.689 -3818.78)" fill="#42516b"/>
  </g>
</svg>
