<svg xmlns="http://www.w3.org/2000/svg" width="22.487" height="25.585" viewBox="0 0 22.487 25.585"><path d="M53.11,6.121,42.616.1a.75.75,0,0,0-.746,0L31.376,6.121a.75.75,0,0,0-.376.65V18.814a.75.75,0,0,0,.377.65L41.87,25.485a.75.75,0,0,0,.746,0L53.11,19.464a.75.75,0,0,0,.377-.65V6.771A.75.75,0,0,0,53.11,6.121ZM43.992,19.288h-3.5a.75.75,0,1,1,0-1.5h3.5a.75.75,0,1,1,0,1.5Zm2.992-7.268a.75.75,0,0,1-.682.439h-1.56V16.04a.75.75,0,0,1-.75.75h-3.5a.75.75,0,0,1-.75-.75V12.459h-1.56a.75.75,0,0,1-.565-1.242l4.059-4.664a.75.75,0,0,1,1.131,0l4.059,4.664A.75.75,0,0,1,46.984,12.02Z" transform="translate(-31 0)" fill="#fff"/></svg>