<svg xmlns="http://www.w3.org/2000/svg" width="17.779" height="21.31" viewBox="0 0 17.779 21.31"><path d="M92.164,10.265a4.966,4.966,0,0,0,3.629-1.5,4.966,4.966,0,0,0,1.5-3.629,4.967,4.967,0,0,0-1.5-3.629,5.131,5.131,0,0,0-7.258,0,4.966,4.966,0,0,0-1.5,3.629,4.966,4.966,0,0,0,1.5,3.629A4.967,4.967,0,0,0,92.164,10.265Zm0,0" transform="translate(-83.409 0)" fill="#fff"/><path d="M17.735,253.409a12.678,12.678,0,0,0-.173-1.346,10.61,10.61,0,0,0-.331-1.354,6.687,6.687,0,0,0-.557-1.263,4.765,4.765,0,0,0-.839-1.094,3.7,3.7,0,0,0-1.206-.757,4.166,4.166,0,0,0-1.539-.278,1.562,1.562,0,0,0-.834.354c-.25.163-.543.352-.869.56a4.979,4.979,0,0,1-1.124.5,4.366,4.366,0,0,1-2.751,0,4.967,4.967,0,0,1-1.124-.5c-.323-.207-.616-.4-.87-.561a1.56,1.56,0,0,0-.834-.354,4.161,4.161,0,0,0-1.539.279,3.7,3.7,0,0,0-1.206.757,4.766,4.766,0,0,0-.839,1.094,6.7,6.7,0,0,0-.557,1.263,10.635,10.635,0,0,0-.331,1.354,12.633,12.633,0,0,0-.173,1.347c-.028.408-.043.831-.043,1.258a3.538,3.538,0,0,0,1.051,2.677,3.783,3.783,0,0,0,2.708.988H14.019a3.782,3.782,0,0,0,2.708-.988,3.537,3.537,0,0,0,1.051-2.677c0-.429-.015-.853-.043-1.259Zm0,0" transform="translate(0 -237.023)" fill="#fff"/></svg>